<svg xmlns="http://www.w3.org/2000/svg" xmlns:xlink="http://www.w3.org/1999/xlink" version="1.1" x="0px" y="0px" style="enable-background:new 0 0 500 500;" xml:space="preserve" viewBox="183.04 100.67 156.01 157.08">
<g id="_x37_1">
	<g>
		
		
		<g>
			<linearGradient id="SVGID_1_" gradientUnits="userSpaceOnUse" x1="186.4932" y1="250.7957" x2="331.4932" y2="136.2956">
				<stop offset="0" style="stop-color:#1295D4"/>
				<stop offset="1" style="stop-color:#7EC443"/>
			</linearGradient>
			<path style="fill:url(#SVGID_1_);" d="M335.646,188.234c-2.278-5.319-5.603-9.918-9.885-13.672     c-4.115-3.598-9.112-6.748-14.852-9.367c-5.548-2.525-11.833-4.871-18.629-6.952c-4.625-1.489-7.886-2.452-10.505-3.228     c-3.96-1.17-6.142-1.814-9.053-3.101c-1.833-0.807-3.262-1.692-4.129-2.559c-0.335-0.337-0.679-0.825-0.679-1.903     c0-1.359,0.443-1.697,1.022-1.996c1.542-0.796,3.795-1.199,6.696-1.199c3.954,0,8.084,0.664,12.272,1.975     c8.982,2.816,16.712,6.255,24.327,10.819c0.945,0.567,2.085,0.719,3.143,0.419c1.06-0.299,1.951-1.023,2.46-2l17.271-33.102     c0.497-0.95,0.59-2.061,0.26-3.081c-0.33-1.021-1.057-1.866-2.016-2.346c-11.363-5.686-24.081-11.394-40.06-14.632     c-5.375-1.089-10.825-1.641-16.2-1.641c-15.821,0-29.923,4.652-40.777,13.453c-0.054,0.043-0.104,0.091-0.156,0.135     c-0.726-0.645-1.682-1.027-2.655-1.027c-1.051,0-2.08,0.43-2.83,1.17c-0.74,0.75-1.17,1.779-1.17,2.83     c0,0.935,0.356,1.844,0.954,2.563c-2.651,3.054-4.92,6.479-6.804,10.235c-0.232-0.18-0.483-0.34-0.761-0.469     c-2.01-0.921-4.38-0.041-5.309,1.959c0,0.01,0,0.01,0,0.01c-0.92,2-0.04,4.381,1.97,5.301c0.402,0.186,0.821,0.277,1.24,0.322     c-0.707,2.291-1.268,4.676-1.662,7.163c-0.418-0.208-0.875-0.356-1.368-0.405c-2.199-0.221-4.16,1.38-4.38,3.58     c-0.23,2.199,1.38,4.16,3.569,4.379c0.141,0.011,0.281,0.021,0.41,0.021c0.374,0,0.731-0.067,1.078-0.165     c-0.026,0.766-0.055,1.529-0.055,2.309c0,1.779,0.092,3.482,0.238,5.143c-0.488-0.096-1.002-0.106-1.521-0.006     c-2.17,0.41-3.59,2.5-3.18,4.68c0.37,1.91,2.04,3.25,3.92,3.25c0.25,0,0.51-0.029,0.76-0.08c0.458-0.086,0.873-0.262,1.254-0.484     c0.615,2.385,1.43,4.631,2.45,6.75c-0.282,0.126-0.558,0.277-0.814,0.475c-1.75,1.35-2.07,3.859-0.721,5.609     c0.791,1.021,1.971,1.561,3.17,1.561c0.85,0,1.711-0.27,2.44-0.84c0.056-0.043,0.097-0.096,0.149-0.142     c1.522,1.888,3.277,3.655,5.255,5.321c-0.73,1.802-0.066,3.915,1.655,4.93c0.641,0.381,1.35,0.561,2.041,0.561     c0.95,0,1.876-0.344,2.605-0.971c0.882,0.537,1.792,1.063,2.737,1.576c0.71,0.388,1.449,0.77,2.202,1.151     c-0.518,0.073-1.011,0.29-1.385,0.663c-0.47,0.471-0.729,1.11-0.729,1.77c0,0.66,0.26,1.301,0.729,1.77     c0.46,0.46,1.11,0.73,1.771,0.73c0.66,0,1.3-0.27,1.77-0.73c0.46-0.47,0.73-1.11,0.73-1.77c0-0.418-0.119-0.822-0.315-1.188     c1.451,0.679,2.97,1.344,4.553,1.995c0.159,0.757,0.534,1.467,1.082,2.022c0.75,0.74,1.78,1.17,2.83,1.17     c0.852,0,1.688-0.295,2.373-0.797c0.55,0.193,1.097,0.389,1.657,0.579c5.031,1.732,9.443,3.03,13.337,4.177     c7.182,2.115,12.371,3.645,15.309,6.104c1.005,0.844,1.144,1.546,1.144,2.179c0,0.431-0.061,0.801-0.821,1.318     c-0.364,0.247-1.936,1.055-6.899,1.055c-5.35,0-10.675-0.773-15.825-2.3c-5.331-1.581-10.158-3.378-14.411-5.369     c-5.004-2.237-9.889-4.847-14.515-7.753c-0.96-0.604-2.129-0.77-3.22-0.461c-0.595,0.168-1.125,0.479-1.574,0.883     c-0.733-0.65-1.685-1.035-2.664-1.035c-1.049,0-2.08,0.431-2.83,1.17c-0.739,0.75-1.17,1.781-1.17,2.83     c0,1.051,0.431,2.08,1.17,2.83c0.503,0.496,1.137,0.838,1.813,1.018l-5.185,10.556c-0.205-0.156-0.427-0.297-0.667-0.414     c-1.98-0.98-4.381-0.16-5.35,1.82c-0.98,1.99-0.16,4.38,1.819,5.359c0.242,0.119,0.49,0.206,0.74,0.271l-5.186,10.555     c-0.693-0.53-1.549-0.836-2.425-0.836c-1.05,0-2.08,0.42-2.83,1.17c-0.74,0.74-1.17,1.77-1.17,2.83c0,1.051,0.43,2.08,1.17,2.83     c0.75,0.74,1.78,1.17,2.83,1.17c0.976,0,1.923-0.383,2.655-1.027c0.191,0.172,0.401,0.328,0.631,0.465     c17.757,10.542,44.11,17.625,65.576,17.625c6.981,0,14.036-0.832,20.967-2.473c7.089-1.679,13.551-4.468,19.207-8.289     c5.79-3.912,10.509-9.195,14.028-15.704c3.523-6.53,5.311-14.605,5.311-24.001C339.055,199.915,337.908,193.505,335.646,188.234z      M326.705,227.484c-2.898,5.361-6.757,9.693-11.468,12.877c-4.853,3.277-10.428,5.678-16.572,7.133     c-6.327,1.498-12.762,2.258-19.123,2.258c-18.892,0-41.79-5.828-58.279-14.689l13.685-27.855     c3.787,2.195,7.697,4.197,11.645,5.962c4.55,2.132,9.753,4.071,15.468,5.767c5.89,1.744,11.979,2.629,18.099,2.629     c5.329,0,8.952-0.775,11.395-2.438c2.83-1.921,4.325-4.665,4.325-7.935c0-3.236-1.383-6.109-4.003-8.309     c-4.219-3.533-10.079-5.26-18.19-7.648c-3.811-1.123-8.133-2.395-13.007-4.072c-6.212-2.112-11.604-4.406-16.031-6.823     c-12.803-6.957-18.266-16.02-18.266-30.306c0-7.453,1.355-14.066,4.029-19.658c2.675-5.601,6.355-10.323,10.938-14.037     c11.894-9.645,26-11.668,35.739-11.668c4.843,0,9.759,0.498,14.611,1.48c13.401,2.717,24.483,7.332,34.42,12.147l-13.448,25.776     c-7-3.867-14.208-6.914-22.375-9.476c-4.965-1.554-9.898-2.341-14.663-2.341c-4.249,0-7.64,0.684-10.366,2.091     c-3.451,1.783-5.352,5.017-5.352,9.104c0,2.967,1.044,5.58,3.023,7.561c1.607,1.605,3.754,2.987,6.559,4.222     c3.377,1.491,5.874,2.229,10.011,3.452c2.579,0.763,5.788,1.711,10.376,3.188c6.52,1.998,12.478,4.219,17.708,6.6     c5.032,2.297,9.374,5.025,12.901,8.107c3.371,2.956,5.996,6.59,7.801,10.804c1.832,4.271,2.761,9.62,2.761,15.9     C331.055,215.34,329.591,222.137,326.705,227.484z"/>
			
				<linearGradient id="SVGID_00000132766648129179702890000002224361454273683617_" gradientUnits="userSpaceOnUse" x1="175.0443" y1="236.3085" x2="320.0597" y2="121.7961">
				<stop offset="0" style="stop-color:#1295D4"/>
				<stop offset="1" style="stop-color:#7EC443"/>
			</linearGradient>
			<path style="fill:url(#SVGID_00000132766648129179702890000002224361454273683617_);" d="M226.42,194.949     c0,0.261,0.109,0.52,0.29,0.711c0.19,0.18,0.45,0.289,0.71,0.289c0.27,0,0.52-0.109,0.71-0.289c0.181-0.191,0.29-0.45,0.29-0.711     c0-0.26-0.1-0.52-0.29-0.709c-0.38-0.371-1.04-0.371-1.42,0C226.529,194.43,226.42,194.689,226.42,194.949z"/>
			
				<linearGradient id="SVGID_00000077304015729840272910000002037528168950094751_" gradientUnits="userSpaceOnUse" x1="145.6522" y1="199.0689" x2="290.6419" y2="84.5769">
				<stop offset="0" style="stop-color:#1295D4"/>
				<stop offset="1" style="stop-color:#7EC443"/>
			</linearGradient>
			<path style="fill:url(#SVGID_00000077304015729840272910000002037528168950094751_);" d="M191.21,164.09     c0.059,0,0.12,0,0.19-0.01c0.539-0.11,0.89-0.631,0.789-1.17c-0.1-0.551-0.629-0.9-1.17-0.801c-0.539,0.11-0.9,0.631-0.789,1.17     C190.32,163.76,190.74,164.09,191.21,164.09z"/>
			
				<linearGradient id="SVGID_00000039842784103385025630000014337289720831214222_" gradientUnits="userSpaceOnUse" x1="132.4093" y1="182.2911" x2="277.3933" y2="67.8035">
				<stop offset="0" style="stop-color:#1295D4"/>
				<stop offset="1" style="stop-color:#7EC443"/>
			</linearGradient>
			<path style="fill:url(#SVGID_00000039842784103385025630000014337289720831214222_);" d="M195,132.29     c-0.5-0.229-1.1-0.011-1.33,0.489c-0.23,0.5-0.01,1.09,0.49,1.32c0.13,0.07,0.279,0.1,0.42,0.1c0.38,0,0.74-0.219,0.91-0.59     C195.72,133.109,195.5,132.52,195,132.29z"/>
			
				<linearGradient id="SVGID_00000102520473167756339410000012266999640058555324_" gradientUnits="userSpaceOnUse" x1="138.0639" y1="189.4685" x2="283.0673" y2="74.9657">
				<stop offset="0" style="stop-color:#1295D4"/>
				<stop offset="1" style="stop-color:#7EC443"/>
			</linearGradient>
			<path style="fill:url(#SVGID_00000102520473167756339410000012266999640058555324_);" d="M190.72,148.89     c0.5,0,0.941-0.38,0.99-0.899c0.059-0.551-0.341-1.041-0.89-1.09c-0.551-0.061-1.041,0.34-1.101,0.89     c-0.05,0.55,0.351,1.04,0.89,1.1C190.65,148.89,190.68,148.89,190.72,148.89z"/>
			
				<linearGradient id="SVGID_00000172438328799585355430000001900922061596447406_" gradientUnits="userSpaceOnUse" x1="154.713" y1="210.5547" x2="299.7205" y2="96.0486">
				<stop offset="0" style="stop-color:#1295D4"/>
				<stop offset="1" style="stop-color:#7EC443"/>
			</linearGradient>
			<path style="fill:url(#SVGID_00000172438328799585355430000001900922061596447406_);" d="M198.09,176.32     c-0.34-0.44-0.971-0.52-1.41-0.181c-0.43,0.33-0.51,0.96-0.18,1.4c0.199,0.25,0.5,0.39,0.8,0.39c0.21,0,0.431-0.07,0.61-0.21     C198.34,177.38,198.42,176.75,198.09,176.32z"/>
			
				<linearGradient id="SVGID_00000182498189277122041260000013262036632153608077_" gradientUnits="userSpaceOnUse" x1="163.9304" y1="222.2202" x2="308.9261" y2="107.7234">
				<stop offset="0" style="stop-color:#1295D4"/>
				<stop offset="1" style="stop-color:#7EC443"/>
			</linearGradient>
			<path style="fill:url(#SVGID_00000182498189277122041260000013262036632153608077_);" d="M207.98,186.25     c-0.281,0.48-0.121,1.09,0.35,1.369c0.16,0.091,0.34,0.141,0.51,0.141c0.34,0,0.67-0.18,0.859-0.49     c0.281-0.48,0.131-1.09-0.35-1.369C208.88,185.619,208.26,185.77,207.98,186.25z"/>
			
				<linearGradient id="SVGID_00000133517481878246289620000000068070949377535896_" gradientUnits="userSpaceOnUse" x1="129.3464" y1="178.439" x2="274.3577" y2="63.93">
				<stop offset="0" style="stop-color:#1295D4"/>
				<stop offset="1" style="stop-color:#7EC443"/>
			</linearGradient>
			<path style="fill:url(#SVGID_00000133517481878246289620000000068070949377535896_);" d="M206.859,118.23     c0.271,0,0.53-0.111,0.711-0.291c0.18-0.189,0.289-0.449,0.289-0.709c0-0.261-0.109-0.521-0.289-0.711     c-0.371-0.369-1.051-0.369-1.42,0c-0.181,0.19-0.291,0.45-0.291,0.711c0,0.26,0.11,0.52,0.291,0.709     C206.34,118.119,206.6,118.23,206.859,118.23z"/>
			
				<linearGradient id="SVGID_00000109718337296878554270000005121481504816179846_" gradientUnits="userSpaceOnUse" x1="178.6898" y1="240.914" x2="323.6906" y2="126.4133">
				<stop offset="0" style="stop-color:#1295D4"/>
				<stop offset="1" style="stop-color:#7EC443"/>
			</linearGradient>
			<path style="fill:url(#SVGID_00000109718337296878554270000005121481504816179846_);" d="M183.33,235.98     c-0.18,0.189-0.29,0.439-0.29,0.709c0,0.26,0.11,0.521,0.29,0.711c0.189,0.18,0.449,0.289,0.71,0.289     c0.26,0,0.521-0.109,0.71-0.289c0.18-0.19,0.29-0.451,0.29-0.711c0-0.27-0.11-0.52-0.29-0.709     C184.369,235.609,183.699,235.609,183.33,235.98z"/>
			
				<linearGradient id="SVGID_00000148640646355323623280000014368252643351135880_" gradientUnits="userSpaceOnUse" x1="173.4595" y1="234.2813" x2="318.4269" y2="119.807">
				<stop offset="0" style="stop-color:#1295D4"/>
				<stop offset="1" style="stop-color:#7EC443"/>
			</linearGradient>
			<path style="fill:url(#SVGID_00000148640646355323623280000014368252643351135880_);" d="M193.109,218.21     c-0.49-0.24-1.09-0.04-1.33,0.46c-0.25,0.49-0.039,1.09,0.451,1.34c0.149,0.061,0.299,0.1,0.439,0.1c0.37,0,0.73-0.209,0.9-0.56     C193.82,219.05,193.609,218.449,193.109,218.21z"/>
			
				<linearGradient id="SVGID_00000088107564262618054420000008660827236707453879_" gradientUnits="userSpaceOnUse" x1="168.2256" y1="227.6541" x2="313.2088" y2="113.1672">
				<stop offset="0" style="stop-color:#1295D4"/>
				<stop offset="1" style="stop-color:#7EC443"/>
			</linearGradient>
			<path style="fill:url(#SVGID_00000088107564262618054420000008660827236707453879_);" d="M202.02,200.82     c-0.369-0.371-1.05-0.371-1.42,0c-0.18,0.189-0.289,0.439-0.289,0.709c0,0.261,0.109,0.521,0.289,0.711     c0.19,0.18,0.45,0.289,0.711,0.289c0.26,0,0.52-0.109,0.709-0.289c0.18-0.19,0.291-0.45,0.291-0.711     C202.311,201.27,202.199,201.01,202.02,200.82z"/>
			
				<linearGradient id="SVGID_00000152245159433711876210000002222140462055578286_" gradientUnits="userSpaceOnUse" x1="178.1198" y1="240.1931" x2="323.1213" y2="125.6918">
				<stop offset="0" style="stop-color:#1295D4"/>
				<stop offset="1" style="stop-color:#7EC443"/>
			</linearGradient>
			<path style="fill:url(#SVGID_00000152245159433711876210000002222140462055578286_);" d="M236.48,196.01     c0.27-0.279,0.43-0.66,0.43-1.061c0-0.399-0.16-0.779-0.44-1.06c-0.56-0.56-1.55-0.56-2.12,0c-0.279,0.28-0.439,0.66-0.439,1.06     c0,0.4,0.16,0.781,0.439,1.061c0.29,0.28,0.67,0.439,1.061,0.439C235.811,196.449,236.189,196.29,236.48,196.01z"/>
			
				<linearGradient id="SVGID_00000058548202033433613930000006269371463824312500_" gradientUnits="userSpaceOnUse" x1="141.1342" y1="193.3554" x2="286.1358" y2="78.854">
				<stop offset="0" style="stop-color:#1295D4"/>
				<stop offset="1" style="stop-color:#7EC443"/>
			</linearGradient>
			<path style="fill:url(#SVGID_00000058548202033433613930000006269371463824312500_);" d="M198.561,149.38     c0.049,0.01,0.1,0.01,0.15,0.01c0.76,0,1.409-0.569,1.489-1.35c0.08-0.82-0.52-1.559-1.34-1.64c-0.819-0.09-1.56,0.52-1.64,1.34     c-0.01,0-0.01,0-0.01,0C197.13,148.57,197.73,149.3,198.561,149.38z"/>
			
				<linearGradient id="SVGID_00000129885135680074735850000006840466534549696191_" gradientUnits="userSpaceOnUse" x1="148.7186" y1="202.9561" x2="293.7147" y2="88.459">
				<stop offset="0" style="stop-color:#1295D4"/>
				<stop offset="1" style="stop-color:#7EC443"/>
			</linearGradient>
			<path style="fill:url(#SVGID_00000129885135680074735850000006840466534549696191_);" d="M198.92,161.619     c-0.82,0.16-1.35,0.941-1.189,1.761c0.129,0.71,0.76,1.22,1.469,1.22c0.091,0,0.19-0.01,0.281-0.029     c0.809-0.16,1.35-0.94,1.189-1.76C200.52,162,199.73,161.47,198.92,161.619z"/>
			
				<linearGradient id="SVGID_00000141439889295801978380000011859725081792709026_" gradientUnits="userSpaceOnUse" x1="167.0045" y1="226.1077" x2="311.9927" y2="111.6168">
				<stop offset="0" style="stop-color:#1295D4"/>
				<stop offset="1" style="stop-color:#7EC443"/>
			</linearGradient>
			<path style="fill:url(#SVGID_00000141439889295801978380000011859725081792709026_);" d="M217.6,185.47     c-0.71-0.42-1.63-0.19-2.06,0.53c-0.421,0.71-0.181,1.63,0.53,2.05c0.24,0.14,0.5,0.21,0.76,0.21c0.52,0,1.01-0.26,1.289-0.74     C218.55,186.811,218.311,185.89,217.6,185.47z"/>
			
				<linearGradient id="SVGID_00000007416120534588365540000017206090930812628671_" gradientUnits="userSpaceOnUse" x1="157.7716" y1="214.4436" x2="302.801" y2="99.9202">
				<stop offset="0" style="stop-color:#1295D4"/>
				<stop offset="1" style="stop-color:#7EC443"/>
			</linearGradient>
			<path style="fill:url(#SVGID_00000007416120534588365540000017206090930812628671_);" d="M206.47,176.01     c-0.5-0.66-1.44-0.779-2.101-0.27c-0.649,0.51-0.779,1.449-0.27,2.1c0.301,0.391,0.74,0.59,1.19,0.59     c0.319,0,0.64-0.1,0.909-0.32C206.859,177.609,206.98,176.67,206.47,176.01z"/>
			
				<linearGradient id="SVGID_00000059308263395176830940000017104825485566493617_" gradientUnits="userSpaceOnUse" x1="135.4761" y1="186.1774" x2="280.464" y2="71.6868">
				<stop offset="0" style="stop-color:#1295D4"/>
				<stop offset="1" style="stop-color:#7EC443"/>
			</linearGradient>
			<path style="fill:url(#SVGID_00000059308263395176830940000017104825485566493617_);" d="M203.199,131.83     c-0.76-0.34-1.649-0.01-1.989,0.74c-0.351,0.75-0.021,1.64,0.729,1.99c0.211,0.09,0.42,0.139,0.631,0.139     c0.569,0,1.109-0.33,1.359-0.879C204.279,133.07,203.949,132.18,203.199,131.83z"/>
			
				<linearGradient id="SVGID_00000000921954093132458140000009620787383348824988_" gradientUnits="userSpaceOnUse" x1="132.4208" y1="182.322" x2="277.4226" y2="67.8205">
				<stop offset="0" style="stop-color:#1295D4"/>
				<stop offset="1" style="stop-color:#7EC443"/>
			</linearGradient>
			<path style="fill:url(#SVGID_00000000921954093132458140000009620787383348824988_);" d="M214.85,118.73     c0.4,0,0.79-0.16,1.061-0.44c0.279-0.28,0.439-0.66,0.439-1.06c0-0.4-0.16-0.781-0.439-1.061c-0.551-0.561-1.57-0.561-2.12,0     c-0.28,0.279-0.44,0.66-0.44,1.061c0,0.399,0.16,0.779,0.44,1.06C214.07,118.57,214.46,118.73,214.85,118.73z"/>
			
				<linearGradient id="SVGID_00000104690369963686595810000013579769476524805034_" gradientUnits="userSpaceOnUse" x1="181.7597" y1="244.8005" x2="326.7533" y2="130.3054">
				<stop offset="0" style="stop-color:#1295D4"/>
				<stop offset="1" style="stop-color:#7EC443"/>
			</linearGradient>
			<path style="fill:url(#SVGID_00000104690369963686595810000013579769476524805034_);" d="M190.97,235.63     c-0.28,0.271-0.44,0.66-0.44,1.06c0,0.4,0.16,0.78,0.44,1.061c0.28,0.279,0.67,0.439,1.06,0.439c0.4,0,0.781-0.16,1.061-0.439     c0.279-0.28,0.439-0.67,0.439-1.061c0-0.4-0.16-0.779-0.439-1.06C192.529,235.07,191.529,235.07,190.97,235.63z"/>
			
				<linearGradient id="SVGID_00000120557334137292491420000007559088677988583857_" gradientUnits="userSpaceOnUse" x1="176.5262" y1="238.1705" x2="321.5167" y2="123.6779">
				<stop offset="0" style="stop-color:#1295D4"/>
				<stop offset="1" style="stop-color:#7EC443"/>
			</linearGradient>
			<path style="fill:url(#SVGID_00000120557334137292491420000007559088677988583857_);" d="M201.33,217.76     c-0.75-0.359-1.641-0.061-2.01,0.689c-0.36,0.74-0.061,1.641,0.689,2c0.21,0.111,0.439,0.16,0.66,0.16     c0.55,0,1.08-0.31,1.34-0.84C202.38,219.029,202.07,218.13,201.33,217.76z"/>
			
				<linearGradient id="SVGID_00000072277731403773194590000013836859190506014123_" gradientUnits="userSpaceOnUse" x1="171.2919" y1="231.5436" x2="316.2886" y2="117.0462">
				<stop offset="0" style="stop-color:#1295D4"/>
				<stop offset="1" style="stop-color:#7EC443"/>
			</linearGradient>
			<path style="fill:url(#SVGID_00000072277731403773194590000013836859190506014123_);" d="M209.3,203.029     c0.399,0,0.78-0.16,1.06-0.439c0.28-0.279,0.44-0.67,0.44-1.061c0-0.39-0.16-0.779-0.44-1.06c-0.549-0.559-1.56-0.559-2.119,0     c-0.28,0.28-0.44,0.66-0.44,1.06c0,0.391,0.16,0.781,0.44,1.061C208.52,202.869,208.91,203.029,209.3,203.029z"/>
			
				<linearGradient id="SVGID_00000044892340537286428000000016416779011979384212_" gradientUnits="userSpaceOnUse" x1="160.8538" y1="218.3285" x2="305.8561" y2="103.8265">
				<stop offset="0" style="stop-color:#1295D4"/>
				<stop offset="1" style="stop-color:#7EC443"/>
			</linearGradient>
			<path style="fill:url(#SVGID_00000044892340537286428000000016416779011979384212_);" d="M211.3,178.46     c0.49,0.63,1.23,0.97,1.98,0.97c0.541,0,1.07-0.17,1.531-0.52c1.09-0.85,1.289-2.42,0.449-3.51c-0.84-1.09-2.41-1.301-3.51-0.451     C210.66,175.79,210.46,177.359,211.3,178.46z"/>
			
				<linearGradient id="SVGID_00000118359991719086230820000014314687851076905601_" gradientUnits="userSpaceOnUse" x1="151.7856" y1="206.8479" x2="296.7924" y2="92.3423">
				<stop offset="0" style="stop-color:#1295D4"/>
				<stop offset="1" style="stop-color:#7EC443"/>
			</linearGradient>
			<path style="fill:url(#SVGID_00000118359991719086230820000014314687851076905601_);" d="M206.72,160.64     c-1.351,0.261-2.239,1.57-1.98,2.921c0.23,1.199,1.27,2.029,2.449,2.029c0.16,0.01,0.311-0.01,0.471-0.04     c1.359-0.26,2.25-1.569,1.99-2.92C209.39,161.27,208.08,160.38,206.72,160.64z"/>
			
				<linearGradient id="SVGID_00000122691274871952915920000008870399687073545857_" gradientUnits="userSpaceOnUse" x1="138.5426" y1="190.0682" x2="283.5386" y2="75.5712">
				<stop offset="0" style="stop-color:#1295D4"/>
				<stop offset="1" style="stop-color:#7EC443"/>
			</linearGradient>
			<path style="fill:url(#SVGID_00000122691274871952915920000008870399687073545857_);" d="M209.52,135.47     c0.34,0.149,0.691,0.23,1.041,0.23c0.949,0,1.85-0.539,2.27-1.459c0.58-1.26,0.029-2.74-1.221-3.32     c-1.26-0.57-2.74-0.02-3.319,1.23C207.71,133.41,208.26,134.89,209.52,135.47z"/>
			
				<linearGradient id="SVGID_00000108271656092898846300000016554480638573759620_" gradientUnits="userSpaceOnUse" x1="144.2028" y1="197.241" x2="289.2041" y2="82.7399">
				<stop offset="0" style="stop-color:#1295D4"/>
				<stop offset="1" style="stop-color:#7EC443"/>
			</linearGradient>
			<path style="fill:url(#SVGID_00000108271656092898846300000016554480638573759620_);" d="M206.449,150.38     c0.08,0.01,0.17,0.01,0.25,0.01c1.271,0,2.361-0.96,2.49-2.25c0.141-1.37-0.859-2.6-2.24-2.739     c-1.369-0.141-2.6,0.869-2.739,2.239C204.07,149.01,205.07,150.24,206.449,150.38z"/>
			
				<linearGradient id="SVGID_00000017509175295692287140000002988228272672484782_" gradientUnits="userSpaceOnUse" x1="170.0713" y1="230.0002" x2="315.0718" y2="115.4996">
				<stop offset="0" style="stop-color:#1295D4"/>
				<stop offset="1" style="stop-color:#7EC443"/>
			</linearGradient>
			<path style="fill:url(#SVGID_00000017509175295692287140000002988228272672484782_);" d="M226.1,184.609     c-1.189-0.709-2.72-0.31-3.42,0.881c-0.71,1.18-0.32,2.72,0.87,3.42c0.399,0.24,0.84,0.35,1.271,0.35     c0.859,0,1.689-0.439,2.16-1.22C227.68,186.85,227.29,185.311,226.1,184.609z"/>
			
				<linearGradient id="SVGID_00000101815324752840293760000008084376696685877123_" gradientUnits="userSpaceOnUse" x1="135.494" y1="186.2079" x2="280.4911" y2="71.7102">
				<stop offset="0" style="stop-color:#1295D4"/>
				<stop offset="1" style="stop-color:#7EC443"/>
			</linearGradient>
			<path style="fill:url(#SVGID_00000101815324752840293760000008084376696685877123_);" d="M222.85,119.73     c0.65,0,1.301-0.271,1.76-0.73c0.471-0.471,0.74-1.11,0.74-1.77c0-0.66-0.27-1.301-0.74-1.771c-0.92-0.931-2.6-0.931-3.529,0     c-0.471,0.47-0.73,1.11-0.73,1.771c0,0.659,0.26,1.299,0.73,1.77C221.54,119.46,222.189,119.73,222.85,119.73z"/>
			
				<linearGradient id="SVGID_00000027564574797422406170000006368489165751270806_" gradientUnits="userSpaceOnUse" x1="184.8292" y1="248.6894" x2="329.8339" y2="134.1856">
				<stop offset="0" style="stop-color:#1295D4"/>
				<stop offset="1" style="stop-color:#7EC443"/>
			</linearGradient>
			<path style="fill:url(#SVGID_00000027564574797422406170000006368489165751270806_);" d="M198.26,234.92     c-0.47,0.47-0.74,1.109-0.74,1.77c0,0.65,0.27,1.301,0.74,1.771c0.46,0.46,1.109,0.729,1.76,0.729c0.66,0,1.311-0.27,1.77-0.729     c0.47-0.47,0.73-1.12,0.73-1.771c0-0.66-0.26-1.3-0.73-1.77C200.859,233.99,199.18,233.99,198.26,234.92z"/>
			
				<linearGradient id="SVGID_00000041982335979737360280000005468023316642274183_" gradientUnits="userSpaceOnUse" x1="179.5931" y1="242.0583" x2="324.595" y2="127.5567">
				<stop offset="0" style="stop-color:#1295D4"/>
				<stop offset="1" style="stop-color:#7EC443"/>
			</linearGradient>
			<path style="fill:url(#SVGID_00000041982335979737360280000005468023316642274183_);" d="M207.561,221.35     c0.35,0.17,0.729,0.26,1.1,0.26c0.92,0,1.809-0.52,2.24-1.399c0.609-1.24,0.1-2.74-1.141-3.351c-1.24-0.609-2.74-0.09-3.35,1.15     C205.811,219.25,206.32,220.74,207.561,221.35z"/>
			
				<linearGradient id="SVGID_00000030488701057141971480000000178234882623444121_" gradientUnits="userSpaceOnUse" x1="174.3617" y1="235.4322" x2="319.361" y2="120.9327">
				<stop offset="0" style="stop-color:#1295D4"/>
				<stop offset="1" style="stop-color:#7EC443"/>
			</linearGradient>
			<path style="fill:url(#SVGID_00000030488701057141971480000000178234882623444121_);" d="M215.529,199.76     c-0.469,0.471-0.739,1.109-0.739,1.77s0.271,1.301,0.739,1.771c0.461,0.46,1.11,0.729,1.77,0.729c0.649,0,1.3-0.27,1.761-0.729     c0.469-0.47,0.739-1.11,0.739-1.771s-0.27-1.299-0.739-1.77C218.13,198.83,216.449,198.83,215.529,199.76z"/>
		</g>
	</g>
</g>

</svg>